# Created by Kenney (www.kenney.nl)

mtllib EntryRoomWall.mtl

g mergedBlocks

v -0.4000006 6.4493 2.990101
v -0.6000007 6.4493 2.990101
v -0.3999999 6.4493 -2.990101
v -0.6 6.4493 -2.990101
v -0.6000007 0 2.990101
v -0.6 0 -2.990101
v -0.4000006 0 2.990101
v -0.3999999 0 -2.990101

vn 0 1 0
vn -1 0 -1.192093E-07
vn -1.192093E-07 0 1
vn 1 0 1.192093E-07
vn 0 -1 0
vn 1.192093E-07 0 -1

vt 0.4000006 2.990101
vt 0.6000007 2.990101
vt 0.3999999 -2.990101
vt 0.6 -2.990101
vt -2.990101 6.4493
vt 2.990101 6.4493
vt 2.990101 0
vt -2.990101 0
vt -0.4000006 0
vt -0.6000007 0
vt -0.6000007 6.4493
vt -0.4000006 6.4493
vt 0.3999999 2.990101
vt 0.6 2.990101
vt 0.6000007 -2.990101
vt 0.4000006 -2.990101
vt 0.3999999 6.4493
vt 0.6 6.4493
vt 0.6 0
vt 0.3999999 0

usemtl Sandstone_Floor(Clone)

f 3/3/1 2/2/1 1/1/1
f 3/3/1 4/4/1 2/2/1

usemtl custom6(Clone)

f 5/7/2 2/6/2 4/5/2
f 6/8/2 5/7/2 4/5/2
f 2/11/3 5/10/3 7/9/3
f 1/12/3 2/11/3 7/9/3
f 1/5/4 7/8/4 8/7/4
f 3/6/4 1/5/4 8/7/4
f 5/15/5 6/14/5 8/13/5
f 7/16/5 5/15/5 8/13/5
f 6/19/6 4/18/6 3/17/6
f 8/20/6 6/19/6 3/17/6

