# Created by Kenney (www.kenney.nl)

mtllib themaze_floor.mtl

g mergedBlocks

v 22 0 9.5
v 22 0 -9.5
v -22 0 9.5
v -22 0 -9.5
v 22 0.9 -9.5
v 22 0.9 9.5
v -22 0.9 -9.5
v -22 0.9 9.5
v 22 1 -9.5
v 22 1 9.5
v -22 1 -9.5
v -22 1 9.5

vn 0 -1 0
vn 1 0 0
vn -1 0 0
vn 0 0 -1
vn 0 0 1
vn 0 1 0

vt -22 -9.5
vt -22 9.5
vt 22 -9.5
vt 22 9.5
vt 9.5 0.9
vt 9.5 0
vt -9.5 0.9
vt -9.5 0
vt 22 0
vt -22 0
vt 22 0.9
vt -22 0.9
vt -9.5 1
vt 9.5 1
vt 22 1
vt -22 1

usemtl stoneDark(Clone)

f 3/3/1 2/2/1 1/1/1
f 2/2/1 3/3/1 4/4/1
f 6/7/2 2/6/2 5/5/2
f 2/6/2 6/7/2 1/8/2
f 3/6/3 7/7/3 4/8/3
f 7/7/3 3/6/3 8/5/3
f 7/11/4 2/10/4 4/9/4
f 2/10/4 7/11/4 5/12/4
f 6/11/5 3/10/5 1/9/5
f 3/10/5 6/11/5 8/12/5

usemtl stoneLight(Clone)

f 11/3/6 10/2/6 9/1/6
f 10/2/6 11/3/6 12/4/6
f 8/5/3 11/13/3 7/7/3
f 11/13/3 8/5/3 12/14/3
f 10/15/5 8/12/5 6/11/5
f 8/12/5 10/15/5 12/16/5
f 10/13/2 5/5/2 9/14/2
f 5/5/2 10/13/2 6/7/2
f 11/15/4 5/12/4 7/11/4
f 5/12/4 11/15/4 9/16/4

