# Created by Kenney (www.kenney.nl)

mtllib pedistal.mtl

g mergedBlocks

v 0.15 2.384186E-07 0.15
v 0.1500001 2.384186E-07 -0.15
v 0.1500001 -0.9999998 -0.15
v 0.15 -0.9999998 0.15
v -0.1499999 2.384186E-07 -0.15
v -0.15 2.384186E-07 0.15
v -0.15 -0.9999998 0.15
v -0.1499999 -0.9999998 -0.15
v -0.25 0.1000003 0.25
v -0.2499999 0.1000003 -0.25
v -0.2 0.1500002 0.2
v -0.1999999 0.1500002 -0.2
v 0.25 2.384186E-07 0.25
v -0.25 2.384186E-07 0.25
v 0.25 0.1000003 0.25
v 0.2500001 0.1000003 -0.25
v 0.2 0.1500002 0.2
v 0.2000001 0.1500002 -0.2
v 0.2500001 2.384186E-07 -0.25
v -0.2499999 2.384186E-07 -0.25
v 0.2000001 -0.1999997 -0.2
v -0.1999999 -0.1999997 -0.2
v 0.2 -0.1999997 0.2
v -0.2 -0.1999997 0.2
v 0.0225 2.384186E-07 0.004500031
v -0.0225 2.384186E-07 0.004500031
v -0.0225 0.9999987 0.004200459
v 0.0225 0.9999987 0.004200459
v 0.0225 0.9999996 -0.04079959
v 0.0225 1.138419E-06 -0.04050002
v -0.0225 0.9999996 -0.04079959
v -0.0225 1.138419E-06 -0.04050002

vn 1 0 8.742278E-08
vn 0 1 0
vn -1 0 -8.742278E-08
vn 8.742278E-08 0 -1
vn 0 -1 0
vn -8.742278E-08 0 1
vn -0.7071068 0.7071068 -6.181724E-08
vn 0.7071068 0.7071068 6.181724E-08
vn 8.481256E-08 -0.2425356 -0.9701425
vn -8.481256E-08 -0.2425356 0.9701425
vn 0.9701425 -0.2425356 8.481256E-08
vn -0.9701425 -0.2425356 -8.481256E-08
vn 6.181724E-08 0.7071068 -0.7071068
vn -6.181724E-08 0.7071068 0.7071068
vn 0 0.00029957 1
vn 1 0 0
vn 0 -0.00029957 -1
vn -1 0 0
vn 0 -1 -1.994E-05
vn 0 1 1.994E-05

vt -0.15 2.384186E-07
vt 0.15 2.384186E-07
vt 0.15 -0.9999998
vt -0.15 -0.9999998
vt 0.1499999 -0.1500001
vt -0.1500001 -0.15
vt -0.15 0.15
vt 0.15 0.15
vt 0.15 -0.9999998
vt -0.1500001 -0.9999998
vt -0.1500001 2.384186E-07
vt 0.15 2.384186E-07
vt 0.1499999 -0.9999998
vt -0.1500001 -0.9999998
vt -0.1500001 2.384186E-07
vt 0.1499999 2.384186E-07
vt 0.15 -0.15
vt -0.15 -0.15
vt -0.1500001 0.15
vt 0.1499999 0.1500001
vt -0.15 2.384186E-07
vt 0.15 2.384186E-07
vt 0.15 -0.9999998
vt -0.15 -0.9999998
vt 0.25 0.25
vt 0.2499999 -0.25
vt 0.2 0.2
vt 0.1999999 -0.2
vt 0.25 2.384186E-07
vt -0.25 2.384186E-07
vt 0.25 0.1000003
vt -0.25 0.1000003
vt -0.2500001 -0.25
vt -0.25 0.25
vt -0.2 0.2
vt -0.2000001 -0.2
vt 0.25 2.384186E-07
vt -0.25 2.384186E-07
vt -0.25 0.1000003
vt 0.25 0.1000003
vt -0.2500001 2.384186E-07
vt 0.2499999 2.384186E-07
vt -0.2000001 -0.1999997
vt 0.1999999 -0.1999997
vt 0.2 -0.1999997
vt -0.2 -0.1999997
vt -0.2 -0.1999997
vt 0.2 -0.1999997
vt 0.2 -0.2
vt -0.2 -0.2
vt -0.2000001 0.2
vt 0.1999999 0.2
vt -0.2500001 0.1000003
vt 0.2499999 0.1000003
vt 0.0225 2.384186E-07
vt -0.0225 2.384186E-07
vt -0.0225 0.9999987
vt 0.0225 0.9999987
vt -0.004200459 0.9999987
vt 0.04079959 0.9999996
vt 0.04050002 1.138419E-06
vt -0.004500031 2.384186E-07
vt -0.0225 0.9999996
vt 0.0225 0.9999996
vt 0.0225 1.138419E-06
vt -0.0225 1.138419E-06
vt 0.004500031 2.384186E-07
vt -0.04050002 1.138419E-06
vt 0.004200459 0.9999987
vt -0.04079959 0.9999996
vt -0.0225 -0.004500031
vt -0.0225 0.04050002
vt 0.0225 -0.004500031
vt 0.0225 0.04050002
vt 0.0225 0.004200459
vt 0.0225 -0.04079959
vt -0.0225 -0.04079959
vt -0.0225 0.004200459

usemtl Sandstone_4(Clone)

f 3/3/1 2/2/1 1/1/1
f 4/4/1 3/3/1 1/1/1
f 1/7/2 2/6/2 5/5/2
f 6/8/2 1/7/2 5/5/2
f 5/11/3 8/10/3 7/9/3
f 6/12/3 5/11/3 7/9/3
f 2/15/4 3/14/4 8/13/4
f 5/16/4 2/15/4 8/13/4
f 3/19/5 4/18/5 7/17/5
f 8/20/5 3/19/5 7/17/5
f 4/23/6 1/22/6 6/21/6
f 7/24/6 4/23/6 6/21/6

usemtl Sandstone_5(Clone)

f 11/27/7 10/26/7 9/25/7
f 11/27/7 12/28/7 10/26/7
f 15/31/6 14/30/6 13/29/6
f 15/31/6 9/32/6 14/30/6
f 17/35/8 15/34/8 16/33/8
f 18/36/8 17/35/8 16/33/8
f 15/39/1 13/38/1 19/37/1
f 16/40/1 15/39/1 19/37/1
f 21/43/9 20/42/9 19/41/9
f 21/43/9 22/44/9 20/42/9
f 23/45/10 13/29/10 14/30/10
f 24/46/10 23/45/10 14/30/10
f 23/47/11 19/37/11 13/38/11
f 23/47/11 21/48/11 19/37/11
f 21/51/5 23/50/5 24/49/5
f 22/52/5 21/51/5 24/49/5
f 24/48/12 14/37/12 20/38/12
f 22/47/12 24/48/12 20/38/12
f 10/39/3 20/38/3 14/37/3
f 9/40/3 10/39/3 14/37/3
f 16/53/4 19/41/4 20/42/4
f 10/54/4 16/53/4 20/42/4
f 18/36/13 16/33/13 10/26/13
f 12/28/13 18/36/13 10/26/13
f 18/36/2 11/27/2 17/35/2
f 18/36/2 12/28/2 11/27/2
f 17/35/14 9/25/14 15/34/14
f 17/35/14 11/27/14 9/25/14

usemtl Sandstone_6(Clone)

f 27/57/15 26/56/15 25/55/15
f 28/58/15 27/57/15 25/55/15
f 30/61/16 29/60/16 28/59/16
f 25/62/16 30/61/16 28/59/16
f 32/65/17 31/64/17 29/63/17
f 30/66/17 32/65/17 29/63/17
f 27/69/18 32/68/18 26/67/18
f 27/69/18 31/70/18 32/68/18
f 26/73/19 30/72/19 25/71/19
f 26/73/19 32/74/19 30/72/19
f 29/77/20 31/76/20 27/75/20
f 28/78/20 29/77/20 27/75/20

